<svg id="Business" height="512" viewBox="0 0 64 64" width="512" xmlns="http://www.w3.org/2000/svg"><path d="m61 25h-3v-12a3.009 3.009 0 0 0 -3-3h-14v-5a3.009 3.009 0 0 0 -3-3h-16a3.009 3.009 0 0 0 -3 3v5h-14a3.009 3.009 0 0 0 -3 3v36a3.009 3.009 0 0 0 3 3h28v2h-18a1 1 0 0 0 -.45.11l-6 3a1 1 0 0 0 0 1.78l6 3a1 1 0 0 0 .45.11h46a1 1 0 0 0 1-1v-35a1 1 0 0 0 -1-1zm-48 33.88-1.76-.88 1.76-.88zm8-53.88a1 1 0 0 1 1-1h16a1 1 0 0 1 1 1v5h-2v-3a1 1 0 0 0 -1-1h-12a1 1 0 0 0 -1 1v3h-2zm14 3v2h-10v-2zm-31 5a1 1 0 0 1 1-1h50a1 1 0 0 1 1 1v12h-22a1 1 0 0 0 -1 1v1h-28a1 1 0 0 1 -1-1zm29 16v4h-6v-4zm-28 21a1 1 0 0 1 -1-1v-20.17c.08.03.17.04.26.07.06.01.12.03.18.04a2.6 2.6 0 0 0 .56.06h20v5a1 1 0 0 0 1 1h7v15zm35.41 9.41a1.983 1.983 0 0 1 -1.41.59h-23.76l-.24-.12v-3.76l.24-.12h23.76a2.006 2.006 0 0 1 2 2 1.983 1.983 0 0 1 -.59 1.41zm19.59.59h-17.55a3.953 3.953 0 0 0 .55-2 4 4 0 0 0 -4-4h-4v-27h25z"/><path d="m38 38h9v2h-9z"/><path d="m38 42h19v2h-19z"/><path d="m38 46h19v2h-19z"/><path d="m38 50h19v2h-19z"/><path d="m38 30h3v2h-3z"/><path d="m43 30h14v2h-14z"/><path d="m38 34h7v2h-7z"/><path d="m47 34h10v2h-10z"/><path d="m49 38h8v2h-8z"/></svg>