<svg id="Business" height="512" viewBox="0 0 64 64" width="512" xmlns="http://www.w3.org/2000/svg"><path d="m17 24h8v2h-8z"/><path d="m27 24h15v2h-15z"/><path d="m17 28h8v2h-8z"/><path d="m27 28h15v2h-15z"/><path d="m17 32h8v2h-8z"/><path d="m27 32h15v2h-15z"/><path d="m50.543 35 .68-.737c-.365-.391-1.334-1.429-1.212-2.249.059-.4.406-.786 1.032-1.148a3.63 3.63 0 0 0 2.078-2.833c.164-2.012-1.727-3.628-1.943-3.806l-1.27 1.546c.276.226 1.289 1.244 1.219 2.1-.036.443-.4.869-1.085 1.264a3.661 3.661 0 0 0 -2.01 2.586c-.263 1.774 1.133 3.269 1.779 3.961z"/><path d="m56.543 35 .68-.737c-.365-.391-1.334-1.429-1.212-2.249.059-.4.406-.786 1.032-1.148a3.63 3.63 0 0 0 2.078-2.833c.164-2.012-1.727-3.628-1.943-3.806l-1.27 1.546c.276.226 1.289 1.244 1.219 2.1-.036.443-.4.869-1.085 1.264a3.661 3.661 0 0 0 -2.01 2.586c-.263 1.774 1.133 3.269 1.779 3.961z"/><path d="m61 37h-15v-29a1 1 0 0 0 -1-1h-3v-4a1 1 0 0 0 -1-1h-4a1 1 0 0 0 -1 1v4h-4v-4a1 1 0 0 0 -1-1h-4a1 1 0 0 0 -1 1v4h-4v-4a1 1 0 0 0 -1-1h-4a1 1 0 0 0 -1 1v4h-4v-4a1 1 0 0 0 -1-1h-4a1 1 0 0 0 -1 1v4h-3a1 1 0 0 0 -1 1v53a1 1 0 0 0 1 1h42a.978.978 0 0 0 .94-.71 12.171 12.171 0 0 0 4.06.71 12.01 12.01 0 0 0 12-12v-12a1 1 0 0 0 -1-1zm-23-33h2v8h-2zm-10 0h2v8h-2zm-10 0h2v8h-2zm-10 0h2v8h-2zm-4 5h2v4a1 1 0 0 0 1 1h4a1 1 0 0 0 1-1v-4h4v4a1 1 0 0 0 1 1h4a1 1 0 0 0 1-1v-4h4v4a1 1 0 0 0 1 1h4a1 1 0 0 0 1-1v-4h4v4a1 1 0 0 0 1 1h4a1 1 0 0 0 1-1v-4h2v8h-40zm0 51v-41h40v18h-5a1 1 0 0 0 -1 1v1h-.5a7.5 7.5 0 0 0 0 15h1.19a12.063 12.063 0 0 0 2.82 4.49 12.242 12.242 0 0 0 1.87 1.51zm33.5-17a3.5 3.5 0 0 0 0 7h.5a12.092 12.092 0 0 0 .18 2h-.68a5.5 5.5 0 1 1 0-11h.5v2zm.5 2v3h-.5a1.5 1.5 0 0 1 0-3zm22 5a9.991 9.991 0 0 1 -17.07 7.07 9.915 9.915 0 0 1 -2.93-7.07v-11h20z"/><path d="m10 22a4 4 0 0 0 -4 4v24a1 1 0 0 0 .11.45l3 6a1 1 0 0 0 1.78 0l3-6a1 1 0 0 0 .11-.45v-24a4 4 0 0 0 -4-4zm0 31.76-.88-1.76h1.76zm2-4-.12.24h-3.76l-.12-.24v-23.76a2 2 0 0 1 4 0z"/></svg>