<svg id="Business" height="512" viewBox="0 0 64 64" width="512" xmlns="http://www.w3.org/2000/svg"><path d="m61 37h-6a1 1 0 0 0 -1 1v-30a1 1 0 0 0 -1-1h-8.59l-4.7-4.71a1.033 1.033 0 0 0 -.71-.29h-31a1 1 0 0 0 -1 1v54a1 1 0 0 0 1 1h4v3a1 1 0 0 0 1 1h40a1 1 0 0 0 1-1v-9a1 1 0 0 0 1 1h6a1 1 0 0 0 1-1v-14a1 1 0 0 0 -1-1zm-9-28v28.59l-1.07-1.07-.59-3.55a3.523 3.523 0 0 0 -1.34-2.23v-18.74a1.033 1.033 0 0 0 -.29-.71l-2.3-2.29zm-12-3.59 5.59 5.59h-5.59zm-31 50.59v-52h29v8a1 1 0 0 0 1 1h8v17.01c-.05 0-.11-.01-.16-.01a3.553 3.553 0 0 0 -3.19 2h-16.65v2h16v2h-7a3.009 3.009 0 0 0 -3 3 2.974 2.974 0 0 0 .78 2 2.954 2.954 0 0 0 0 4 2.973 2.973 0 0 0 .62 4.53 2.942 2.942 0 0 0 -.4 1.47 3.009 3.009 0 0 0 3 3h10v2zm27-14h3a1 1 0 0 1 0 2h-3a1 1 0 0 1 0-2zm-1-3a1 1 0 0 1 1-1h3a1 1 0 0 1 0 2h-3a1 1 0 0 1 -1-1zm1 7h3a1 1 0 0 1 0 2h-3a1 1 0 0 1 0-2zm1 4h3a1 1 0 0 1 0 2h-3a1 1 0 0 1 0-2zm15 10h-38v-2h34a1 1 0 0 0 1-1v-3h2a1.033 1.033 0 0 0 .71-.29l.29-.3zm2-10h-1a1.033 1.033 0 0 0 -.71.29l-1.7 1.71h-7.77a2.957 2.957 0 0 0 -1.22-3.53 2.942 2.942 0 0 0 .4-1.47 2.974 2.974 0 0 0 -.78-2 2.954 2.954 0 0 0 0-4 2.974 2.974 0 0 0 .78-2 3 3 0 0 0 -.18-1h1.18v3.74a5.019 5.019 0 0 0 2.43 4.28l3.06 1.84 1.02-1.72-3.05-1.83a3.022 3.022 0 0 1 -1.46-2.57v-7.58l.37-1.1a1.55 1.55 0 0 1 3 .24l.64 3.86a1.113 1.113 0 0 0 .28.55l2 2a1.033 1.033 0 0 0 .71.29h2zm6 1h-4v-12h4z"/><path d="m23.8 8h-9.8a1 1 0 0 0 -1 1v10a1 1 0 0 0 1 1h10a1 1 0 0 0 1-1v-9.339l1.752-2-1.5-1.316zm-.8 10h-8v-8h7.046l-3.095 3.537-1.244-1.244-1.414 1.414 2 2a1 1 0 0 0 .707.293h.033a1 1 0 0 0 .719-.341l3.248-3.712z"/><path d="m23.8 24h-9.8a1 1 0 0 0 -1 1v10a1 1 0 0 0 1 1h10a1 1 0 0 0 1-1v-9.339l1.752-2-1.5-1.316zm-.8 10h-8v-8h7.046l-3.095 3.537-1.244-1.244-1.414 1.414 2 2a1 1 0 0 0 .707.293h.033a1 1 0 0 0 .719-.341l3.248-3.712z"/><path d="m25.248 38.342-1.448 1.658h-9.8a1 1 0 0 0 -1 1v10a1 1 0 0 0 1 1h10a1 1 0 0 0 1-1v-9.339l1.752-2zm-2.248 11.658h-8v-8h7.046l-3.095 3.537-1.244-1.244-1.414 1.414 2 2a1 1 0 0 0 .707.293h.033a1 1 0 0 0 .719-.341l3.248-3.712z"/><path d="m27 11h8v2h-8z"/><path d="m27 16h18v2h-18z"/><path d="m27 27h8v2h-8z"/><path d="m37 27h8v2h-8z"/></svg>