<?xml version="1.0" encoding="UTF-8"?>
<svg xmlns="http://www.w3.org/2000/svg" id="Business" viewBox="0 0 64 64" width="512" height="512"><path d="M57,48H55a1.059,1.059,0,0,1-.51-.14A.987.987,0,0,1,54,47V44.74A7.01,7.01,0,0,0,57,39V38h.5a3.5,3.5,0,0,0,0-7H57V28a5,5,0,0,0-5-5V6a3.009,3.009,0,0,0-3-3H5A3.009,3.009,0,0,0,2,6V38a3.009,3.009,0,0,0,3,3H22.87l-.5,4H19a1,1,0,0,0-1,1v6a1,1,0,0,0,1,1H35a1,1,0,0,0,1-1V46a1,1,0,0,0-1-1H31.63l-.5-4H43.29A7.073,7.073,0,0,0,46,44.74V47a1,1,0,0,1-1,1H43a5,5,0,0,0-5,5v7a1,1,0,0,0,1,1H61a1,1,0,0,0,1-1V53A5,5,0,0,0,57,48Zm0-15h.5a1.5,1.5,0,0,1,0,3H57ZM31.75,48.66a.968.968,0,0,0,.24-.78L31.88,47H34v4H20V47h2.12l-.11.88a.968.968,0,0,0,.24.78A.981.981,0,0,0,23,49h8A.981.981,0,0,0,31.75,48.66ZM24.13,47l.75-6h4.24l.75,6ZM43,39H5a1,1,0,0,1-1-1V6A1,1,0,0,1,5,5H49a1,1,0,0,1,1,1V23H49V7a1,1,0,0,0-1-1H6A1,1,0,0,0,5,7V37a1,1,0,0,0,1,1H43Zm-1.67-7.79A3.51,3.51,0,0,0,39,34.5a3.446,3.446,0,0,0,.35,1.5H7V8H47V23H40a1,1,0,0,0-1,1v3A4.98,4.98,0,0,0,41.33,31.21ZM43,36h-.5a1.5,1.5,0,0,1,0-3H43Zm-2-9V25H52a3.009,3.009,0,0,1,3,3v2H44A3.009,3.009,0,0,1,41,27Zm4,12V32H55v7a5,5,0,0,1-10,0Zm7.14,8.87L50,50.44l-2.14-2.57A3.166,3.166,0,0,0,48,47V45.71a7.042,7.042,0,0,0,4,0V47A2.83,2.83,0,0,0,52.14,47.87Zm1.24,1.64c.04.02.07.06.11.08a2.493,2.493,0,0,0,.51.21v4.12l-2.58-2.06ZM46,49.82a3.071,3.071,0,0,0,.63-.31l1.95,2.35L46,53.92ZM60,59H40V53a3.009,3.009,0,0,1,3-3h1v6a1,1,0,0,0,.57.9A.907.907,0,0,0,45,57a.961.961,0,0,0,.62-.22L50,53.28l4.38,3.5A.961.961,0,0,0,55,57a.907.907,0,0,0,.43-.1A1,1,0,0,0,56,56V50h1a3.009,3.009,0,0,1,3,3Z"/><path d="M35,20H34V17a1,1,0,0,0-1-1H31V12a1,1,0,0,0-1-1H14a1,1,0,0,0-1,1v4H11a1,1,0,0,0-1,1V32a1,1,0,0,0,1,1H35a1,1,0,0,0,1-1V21A1,1,0,0,0,35,20Zm-4-2h1v2H31ZM15,13H29v7H20.41l-3.7-3.71A1.033,1.033,0,0,0,16,16H15ZM34,31H12V18h3.59l3.7,3.71A1.033,1.033,0,0,0,20,22H34Z"/><path d="M48,37a1,1,0,0,0,1-1V35a1,1,0,0,0-2,0v1A1,1,0,0,0,48,37Z"/><path d="M52,37a1,1,0,0,0,1-1V35a1,1,0,0,0-2,0v1A1,1,0,0,0,52,37Z"/></svg>
