<svg id="Business" height="512" viewBox="0 0 64 64" width="512" xmlns="http://www.w3.org/2000/svg"><path d="m61 12a1 1 0 0 0 1-1v-4a5 5 0 0 0 -5-5h-41a5 5 0 0 0 -5 5v3.46a9.993 9.993 0 0 0 -4.8 15.79l-3.99 5.14a1 1 0 0 0 -.11 1.05 1.012 1.012 0 0 0 .9.56h3.38l1.73 3.45a.988.988 0 0 0 .89.55h.02a1.014 1.014 0 0 0 .89-.59l1.09-2.39v17.98h-6a1 1 0 0 0 -1 1v4a5 5 0 0 0 5 5h40a5 5 0 0 0 5-5v-1a1 1 0 0 0 1 1h6a1 1 0 0 0 1-1v-14a1 1 0 0 0 -1-1h-6a1 1 0 0 0 -1 1v-30zm-7-5a3 3 0 0 1 6 0v3h-6zm2 36h4v12h-4zm-43-36a3.009 3.009 0 0 1 3-3h37.03a4.924 4.924 0 0 0 -1.03 3v34.59l-1.07-1.07-.59-3.55a3.549 3.549 0 0 0 -6.87-.54l-.42 1.25a1.185 1.185 0 0 0 -.05.32v2h-7a3.009 3.009 0 0 0 -3 3 2.974 2.974 0 0 0 .78 2 2.954 2.954 0 0 0 0 4 2.974 2.974 0 0 0 -.78 2 3 3 0 0 0 .18 1h-20.18v-22.05c.33.03.66.05 1 .05a10.573 10.573 0 0 0 1.14-.07l2.95 6.48a1.014 1.014 0 0 0 .89.59h.02a.988.988 0 0 0 .89-.55l1.73-3.45h3.38a1.012 1.012 0 0 0 .9-.56 1 1 0 0 0 -.11-1.05l-3.99-5.14a9.994 9.994 0 0 0 -7.8-16.25c-.34 0-.67.02-1 .05zm23 39h3a1 1 0 0 1 0 2h-3a1 1 0 0 1 0-2zm-1-3a1 1 0 0 1 1-1h3a1 1 0 0 1 0 2h-3a1 1 0 0 1 -1-1zm1 7h3a1 1 0 0 1 0 2h-3a1 1 0 0 1 0-2zm1 4h3a1 1 0 0 1 0 2h-3a1 1 0 0 1 0-2zm-19.86-24.51a10.1 10.1 0 0 0 3.24-1.8l2.58 3.31h-1.96a.977.977 0 0 0 -.89.55l-1.07 2.13zm-8.18 4.19-1.07-2.13a.977.977 0 0 0 -.89-.55h-1.96l2.58-3.31a10.1 10.1 0 0 0 3.24 1.8zm-2.96-13.68a8 8 0 1 1 8 8 8.011 8.011 0 0 1 -8-8zm3 40a3.009 3.009 0 0 1 -3-3v-3h28.18a2.98 2.98 0 0 0 2.82 4h7.1a4.84 4.84 0 0 0 .93 2zm40 0a3.01 3.01 0 0 1 -2.82-2h4.82a1.033 1.033 0 0 0 .71-.29l.24-.25a2.983 2.983 0 0 1 -2.95 2.54zm5-6h-1a1.033 1.033 0 0 0 -.71.29l-1.7 1.71h-7.77a2.957 2.957 0 0 0 -1.22-3.53 2.942 2.942 0 0 0 .4-1.47 2.974 2.974 0 0 0 -.78-2 2.954 2.954 0 0 0 0-4 2.974 2.974 0 0 0 .78-2 3 3 0 0 0 -.18-1h1.18v3.74a5.019 5.019 0 0 0 2.43 4.28l3.06 1.84 1.02-1.72-3.05-1.83a3.022 3.022 0 0 1 -1.46-2.57v-7.58l.37-1.1a1.55 1.55 0 0 1 3 .24l.64 3.86a1.113 1.113 0 0 0 .28.55l2 2a1.033 1.033 0 0 0 .71.29h2z"/><path d="m14 26a6 6 0 1 0 -6-6 6.006 6.006 0 0 0 6 6zm0-10a4 4 0 1 1 -4 4 4 4 0 0 1 4-4z"/><path d="m28 13h21v2h-21z"/><path d="m28 18h21v2h-21z"/><path d="m28 23h21v2h-21z"/><path d="m28 28h21v2h-21z"/></svg>