<svg id="Business" height="512" viewBox="0 0 64 64" width="512" xmlns="http://www.w3.org/2000/svg"><path d="m57 48h-2a1 1 0 0 1 -1-1v-3.26a7.01 7.01 0 0 0 3-5.74h.5a3.5 3.5 0 0 0 0-7h-.5v-4a5.014 5.014 0 0 0 -3-4.58v-6.42a1 1 0 0 0 -1-1h-19.29a15.927 15.927 0 0 0 -2.36-5.8l4.27-3.42-1.24-1.56-4.24 3.39a15.984 15.984 0 0 0 -26.14 18.12v32.27a1 1 0 0 0 1 1h33v1a1 1 0 0 0 1 1h22a1 1 0 0 0 1-1v-7a5 5 0 0 0 -5-5zm0-15h.5a1.5 1.5 0 0 1 0 3h-.5zm-2 5a5 5 0 0 1 -10 0v-7h10zm-7.14 9.87a3.166 3.166 0 0 0 .14-.87v-2.29a7.042 7.042 0 0 0 4 0v2.29a3.166 3.166 0 0 0 .14.87l-2.14 2.57zm.72 3.99-2.58 2.06v-4.1a3.071 3.071 0 0 0 .63-.31zm4.79-2.35a3.071 3.071 0 0 0 .63.31v4.1l-2.58-2.06zm1.63-22.51v2h-11a3.009 3.009 0 0 1 -3-3v-2h11a3.009 3.009 0 0 1 3 3zm-21.05-10h18.05v5h-2v-2a1 1 0 0 0 -1-1h-15.05c.02-.33.05-.66.05-1s-.03-.67-.05-1zm14.05 4v1h-8a1 1 0 0 0 -1 1v3a5.017 5.017 0 0 0 4 4.9v.1h-.5a3.5 3.5 0 0 0 0 7h.5a7.01 7.01 0 0 0 3 5.74v3.26a1 1 0 0 1 -1 1h-10v-17.5a2.5 2.5 0 0 0 -5 0v2.5a2.006 2.006 0 0 0 -2 2v18h-18v-21.16a15.968 15.968 0 0 0 23.71-10.84zm-5 12v3h-.5a1.5 1.5 0 0 1 0-3zm-10-2.5v7.5h-3v-3h1a1 1 0 0 0 1-1v-3.5a.5.5 0 0 1 1 0zm-14-26.45a13.976 13.976 0 0 1 9.58 4.81l-3.4 2.71-2.38-3.17-1.6 1.2 3 4a.974.974 0 0 0 .67.39.615.615 0 0 0 .13.01.977.977 0 0 0 .62-.22l4.16-3.32a13.854 13.854 0 0 1 2.17 6.54h-12.95zm-15 13.95a14.015 14.015 0 0 1 13-13.95v13.95a1 1 0 0 0 1 1h13.95a13.993 13.993 0 0 1 -27.95-1zm34 39h-32v-28.45a16.5 16.5 0 0 0 2 1.92v23.53a1 1 0 0 0 1 1h29zm22 2h-20v-5a1 1 0 0 0 -1-1h-9v-13h3v9a1 1 0 0 0 1 1h10v6a1 1 0 0 0 .57.9.935.935 0 0 0 .43.1.961.961 0 0 0 .62-.22l4.38-3.5 4.38 3.5a.961.961 0 0 0 .62.22.907.907 0 0 0 .43-.1 1 1 0 0 0 .57-.9v-6h1a3.009 3.009 0 0 1 3 3z"/><path d="m48 33a1 1 0 0 0 -1 1v1a1 1 0 0 0 2 0v-1a1 1 0 0 0 -1-1z"/><path d="m52 33a1 1 0 0 0 -1 1v1a1 1 0 0 0 2 0v-1a1 1 0 0 0 -1-1z"/><path d="m12 37h3v2h-3z"/><path d="m17 37h9v2h-9z"/><path d="m12 42h14v2h-14z"/><path d="m12 47h14v2h-14z"/></svg>