<svg id="Business" height="512" viewBox="0 0 64 64" width="512" xmlns="http://www.w3.org/2000/svg"><path d="m30 14h20v2h-20z"/><path d="m30 18h20v2h-20z"/><path d="m61 23h-2v-5a1 1 0 0 0 -1-1h-4v-8a1.033 1.033 0 0 0 -.29-.71l-6-6a1.033 1.033 0 0 0 -.71-.29h-36a1 1 0 0 0 -1 1v12h-7a1 1 0 0 0 -1 1v37a1 1 0 0 0 1 1h8v3a1 1 0 0 0 1 1h9a1 1 0 0 0 1 1h3v1a1 1 0 0 0 1 1h22a9.016 9.016 0 0 0 8.77-7h4.23a1 1 0 0 0 1-1v-29a1 1 0 0 0 -1-1zm-7-4h3v4h-3zm-7-14.59 3.59 3.59h-3.59zm-35-.41h33v5a1 1 0 0 0 1 1h6v13h-21.13l-5.04-7.55a1 1 0 0 0 -.83-.45h-13zm9 52h-8v-8h8zm4 1h-2v-10h2zm23 2h-21v-14h21a7 7 0 0 1 0 14zm12-7h-3a9.014 9.014 0 0 0 -9-9h-22a1 1 0 0 0 -1 1v1h-3a1 1 0 0 0 -1 1h-9a1 1 0 0 0 -1 1v5h-7v-35h20.46l5.04 7.55a1.008 1.008 0 0 0 .83.45h29.67z"/><path d="m16 49h3v2h-3z"/><path d="m16 53h3v2h-3z"/></svg>