<?xml version="1.0" encoding="UTF-8"?>
<svg xmlns="http://www.w3.org/2000/svg" id="Business" viewBox="0 0 64 64" width="512" height="512"><path d="M44,17h1a1,1,0,0,0,1-1V12a1,1,0,0,0-1-1H42V9h2v1h2V8a1,1,0,0,0-1-1H44V6H42V7H41a1,1,0,0,0-1,1v4a1,1,0,0,0,1,1h3v2H42V14H40v2a1,1,0,0,0,1,1h1v1h2Z"/><path d="M58,21a3.009,3.009,0,0,0-1,.171V20a3,3,0,0,0-4.1-2.789,3.007,3.007,0,0,0-.721-1.274A9.989,9.989,0,1,0,43,22v8.382l-.016-.008A3.274,3.274,0,0,0,39.2,35.617l2.8,2.8V41a1,1,0,0,0,.1.447l1.364,2.727A.982.982,0,0,0,43,45V61a1,1,0,0,0,1,1H59a1,1,0,0,0,1-1V45a.987.987,0,0,0-.822-.964l1.654-2.481A1.006,1.006,0,0,0,61,41V24A3,3,0,0,0,58,21ZM43,20a8.033,8.033,0,1,1,7.392-4.967A2.95,2.95,0,0,0,47,18v1.171a2.983,2.983,0,0,0-3.182.783A7.8,7.8,0,0,1,43,20ZM40.617,34.2a1.275,1.275,0,0,1,1.476-2.038l1.46.73A1,1,0,0,0,45,32V22a1,1,0,0,1,2,0v7h2V18a1,1,0,0,1,2,0V29h2V20a1,1,0,0,1,2,0v9h2V24a1,1,0,0,1,2,0V40.7l-1.832,2.748A1.006,1.006,0,0,0,57,44H45.618L44,40.764V38a1,1,0,0,0-.293-.707ZM45,46H58v4H45ZM58,60H45V52H58Z"/><path d="M39,40H21V33.62l.02.01a3.286,3.286,0,0,0,4.64-2.13v-.01a3.331,3.331,0,0,0-.86-3.11L22,25.59V23a1,1,0,0,0-.11-.45l-1.36-2.72A.988.988,0,0,0,21,19V3a1,1,0,0,0-1-1H5A1,1,0,0,0,4,3V19a.978.978,0,0,0,.82.96L3.17,22.45A.967.967,0,0,0,3,23V40a3.009,3.009,0,0,0,3,3V61a1,1,0,0,0,1,1H39a1,1,0,0,0,1-1V41A1,1,0,0,0,39,40ZM6,4H19v8H6ZM6,14H19v4H6ZM7,40a1,1,0,0,1-2,0V23.3l1.83-2.75A.967.967,0,0,0,7,20H18.38L20,23.24V26a1.033,1.033,0,0,0,.29.71l3.09,3.09a1.258,1.258,0,0,1-.37,2.05,1.284,1.284,0,0,1-1.1-.01l-1.46-.73A1,1,0,0,0,19,32V42a1,1,0,0,1-2,0V35H15V46a1,1,0,0,1-2,0V35H11v9a1,1,0,0,1-2,0V35H7ZM28,51a5,5,0,1,1-5-5A5,5,0,0,1,28,51Zm-.11-5h4.28A3.016,3.016,0,0,0,34,47.83v6.34A3.016,3.016,0,0,0,32.17,56H27.89a6.979,6.979,0,0,0,0-10ZM18.11,56H13.83A3.016,3.016,0,0,0,12,54.17V48.22A2.974,2.974,0,0,0,14,49a3.009,3.009,0,0,0,3-3h1.11a6.979,6.979,0,0,0,0,10ZM38,60H8V46.22A2.974,2.974,0,0,0,10,47v8a1,1,0,0,0,1,1,1,1,0,0,1,1,1,1,1,0,0,0,1,1H33a1,1,0,0,0,1-1,1,1,0,0,1,1-1,1,1,0,0,0,1-1V47a1,1,0,0,0-1-1,1,1,0,0,1-1-1,1,1,0,0,0-1-1H20.22A2.974,2.974,0,0,0,21,42H38Z"/></svg>
